<?xml version="1.0" encoding="UTF-8"?>
<svg width="170px" height="28px" viewBox="0 0 170 28" version="1.1" xmlns="http://www.w3.org/2000/svg" xmlns:xlink="http://www.w3.org/1999/xlink">
    <!-- Generator: Sketch 64 (93537) - https://sketch.com -->
    <title>bh_lg_hrz_rgb_rev</title>
    <desc>Created with Sketch.</desc>
    <g id="Page-1" stroke="none" stroke-width="1" fill="none" fill-rule="evenodd">
        <g id="bh_lg_hrz_rgb_rev">
            <path d="M147.974177,7.68366667 C147.051154,7.34416667 146.575501,6.313125 146.91146,5.38066667 C147.247131,4.44820833 148.267419,3.96725 149.190153,4.30675 C147.263005,3.59770833 145.1318,4.60220833 144.430153,6.54966667 C143.729083,8.49741667 144.72253,10.6510833 146.649966,11.3598333 L164.898846,18.0719583 L149.190153,23.8495833 C147.263005,24.5583333 145.1318,23.554125 144.430153,21.606375 C143.729083,19.6589167 144.72253,17.50525 146.649966,16.7965 C143.717827,17.8747917 142.206299,21.1507917 143.273345,24.1135417 C144.340679,27.0765833 147.582513,28.6040417 150.514363,27.52575 L167.652326,21.22225 C169.374261,20.5890417 170.261783,18.6652083 169.635178,16.925125 C169.286231,15.9565 168.54129,15.2489167 167.652615,14.9216667 L147.974177,7.68366667" id="Fill-1" fill="#157A6A"></path>
            <path d="M164.898846,10.084375 L149.190153,4.30675 C147.263005,3.59770833 145.1318,4.60220833 144.430153,6.54966667 C143.729083,8.49741667 144.72253,10.6510833 146.649966,11.3598333 C143.717827,10.2815417 142.206299,7.00554167 143.273345,4.0425 C144.340679,1.07975 147.582513,-0.448 150.514363,0.630291667 L167.652326,6.93408333 C169.374261,7.567 170.261783,9.491125 169.635178,11.2309167 C169.286231,12.1995417 168.54129,12.907125 167.652615,13.2346667 L147.974177,20.4726667 C147.051154,20.8121667 146.575501,21.8432083 146.91146,22.7756667 C147.247131,23.708125 148.267419,24.1890833 149.190153,23.8495833 C147.263005,24.5583333 145.1318,23.554125 144.430153,21.606375 C143.729083,19.6589167 144.72253,17.50525 146.649966,16.7965 L164.898846,10.084375" id="Fill-2" fill="#1FAD87"></path>
            <path d="M5.87091681,13.731375 L3.23404075,13.731375 L3.23404075,18.3175417 L6.00945671,18.3175417 C7.6220034,18.3175417 8.49711375,17.4559583 8.49711375,15.9894583 C8.49711375,14.6626667 7.55273345,13.731375 5.87091681,13.731375 Z M5.38718166,7.44625 L3.23404075,7.44625 L3.23404075,11.2872083 L5.50263158,11.2872083 C7.04619694,11.2872083 7.73716469,10.5189583 7.73716469,9.2855 C7.73716469,8.098125 6.86147708,7.44625 5.38718166,7.44625 Z M0.124108659,4.95541667 L5.54852292,4.95541667 C8.79670628,4.95541667 10.9850594,6.28220833 10.9850594,8.95941667 C10.9850594,10.7286667 9.7179966,11.91575 8.17471986,12.2882083 L8.17471986,12.334875 C10.5705942,12.6606667 11.8145671,14.38325 11.8145671,16.268875 C11.8145671,19.201875 9.46458404,20.8314167 6.33185059,20.8314167 L0.124108659,20.8314167 L0.124108659,4.95541667 Z M40.3607131,13.8710833 L45.520747,13.8710833 C45.3824958,12.567625 44.3919355,11.496625 42.9407301,11.496625 C41.4202547,11.496625 40.4758744,12.6373333 40.3607131,13.8710833 Z M48.5844992,15.1748333 C48.5844992,15.4309167 48.5844992,15.7100417 48.5386078,16.0127917 L40.3376231,16.0127917 C40.3376231,17.5492917 41.6277759,18.8760833 43.1941426,18.8760833 C44.2077929,18.8760833 44.9218506,18.433625 45.4055857,17.7120417 L47.9708829,18.655875 C47.1090492,20.110125 45.5741426,21.2272083 43.1710526,21.2272083 C39.8769779,21.2272083 37.296961,18.806375 37.296961,15.1748333 C37.296961,11.9854583 39.3701528,9.30854167 42.96382,9.30854167 C46.6033786,9.30854167 48.5844992,12.0554583 48.5844992,15.1748333 Z M133.211596,12.684 C133.142615,11.8924167 132.635789,11.4269167 131.944533,11.4269167 C131.207385,11.4269167 130.815722,11.91575 130.815722,12.4045833 C130.815722,13.033125 131.161494,13.4289167 133.027165,14.0807917 C135.353769,14.8490417 136.206078,16.036125 136.206078,17.6423333 C136.206078,19.6907083 134.662513,21.2272083 131.944533,21.2272083 C129.134194,21.2272083 127.798149,19.737375 127.682988,17.572625 L130.470238,17.572625 C130.539219,18.4569583 131.000153,19.0855 132.013803,19.0855 C132.797131,19.0855 133.280577,18.55 133.280577,17.8984167 C133.280577,17.1301667 132.750662,16.6646667 131.092224,16.1058333 C129.019032,15.4309167 127.936401,14.38325 127.936401,12.6373333 C127.936401,10.635625 129.548947,9.30854167 131.921443,9.30854167 C134.363209,9.30854167 135.722343,10.7286667 135.952666,12.684 L133.211596,12.684 Z M118.566774,13.8710833 L123.726808,13.8710833 C123.588557,12.567625 122.597997,11.496625 121.146503,11.496625 C119.626604,11.496625 118.681935,12.6373333 118.566774,13.8710833 Z M126.79056,15.1748333 C126.79056,15.4309167 126.79056,15.7100417 126.744669,16.0127917 L118.543973,16.0127917 C118.543973,17.5492917 119.833548,18.8760833 121.399915,18.8760833 C122.413854,18.8760833 123.1282,18.433625 123.611358,17.7120417 L126.176944,18.655875 C125.31511,20.110125 123.780204,21.2272083 121.377114,21.2272083 C118.083039,21.2272083 115.503022,18.806375 115.503022,15.1748333 C115.503022,11.9854583 117.576214,9.30854167 121.169881,9.30854167 C124.80944,9.30854167 126.79056,12.0554583 126.79056,15.1748333 Z M103.438506,4.07079167 L106.548149,4.07079167 L106.548149,11.0777917 L106.640509,11.0777917 C107.400458,9.84404167 108.644431,9.331875 109.888115,9.331875 C112.35326,9.331875 114.080968,10.9844583 114.080968,14.4299167 L114.080968,20.8314167 L110.971036,20.8314167 L110.971036,14.6162917 C110.971036,12.963125 110.187997,12.102125 108.897844,12.102125 C107.53871,12.102125 106.548149,13.0564583 106.548149,14.9420833 L106.548149,20.8314167 L103.438506,20.8314167 L103.438506,4.07079167 Z M95.5200849,18.340875 C97.0636503,18.340875 98.3307131,17.0601667 98.3307131,15.2212083 C98.3307131,13.3125417 97.1095416,12.0554583 95.5431749,12.0554583 C93.6772156,12.0554583 92.7097453,13.6383333 92.7097453,15.1981667 C92.7097453,16.7346667 93.5851443,18.340875 95.5200849,18.340875 Z M101.256214,20.4822917 C101.256214,24.626 99.4133447,26.8140833 95.3359423,26.8140833 C92.6612564,26.8140833 90.7649915,25.5383333 90.0365025,23.3954583 L92.8941766,22.3445833 C93.1242105,23.4152917 93.9075382,24.25325 95.5200849,24.25325 C97.3860441,24.25325 98.3538031,23.0661667 98.3538031,20.9014167 L98.3538031,19.4812917 L98.2842445,19.4812917 C97.5473854,20.3659167 96.4647538,21.0875 94.7598472,21.0875 C91.9036163,21.0875 89.5539219,18.8294167 89.5539219,15.2212083 C89.5539219,11.8690833 91.834635,9.331875 94.8983871,9.331875 C96.6488964,9.331875 97.6856367,10.2398333 98.2383531,11.031125 L98.3538031,11.031125 L98.3538031,9.681 L101.256214,9.681 L101.256214,20.4822917 Z M87.947725,20.8314167 L84.8608829,20.8314167 L84.8608829,19.434625 L84.7916129,19.434625 C83.8931239,20.7617083 82.764601,21.203875 81.5665195,21.203875 C79.7698302,21.203875 77.5583871,20.0865 77.5583871,16.2922083 L77.5583871,9.681 L80.6683192,9.681 L80.6683192,15.8964167 C80.6683192,17.5259583 81.4282683,18.4105833 82.6263497,18.4105833 C83.9851952,18.4105833 84.8377929,17.4559583 84.8377929,15.5939583 L84.8377929,9.681 L87.947725,9.681 L87.947725,20.8314167 Z M72.2601019,14.0807917 L66.2131239,14.0807917 L66.2131239,20.8314167 L62.9190492,20.8314167 L62.9190492,4.95541667 L66.2131239,4.95541667 L66.2131239,11.1941667 L72.2601019,11.1941667 L72.2601019,4.95541667 L75.5541766,4.95541667 L75.5541766,20.8314167 L72.2601019,20.8314167 L72.2601019,14.0807917 Z M57.5855518,12.38125 C57.1935993,12.3115417 56.7329542,12.2415417 56.1109677,12.2415417 C54.2680985,12.2415417 53.3465195,13.4055833 53.3465195,15.4075833 L53.3465195,20.8314167 L50.2368761,20.8314167 L50.2368761,9.681 L53.2778268,9.681 L53.2778268,11.4035833 L53.3465195,11.4035833 C53.9457046,10.3095417 55.0973175,9.35491667 56.5719015,9.35491667 C57.0094567,9.35491667 57.2859593,9.37854167 57.5855518,9.44825 L57.5855518,12.38125 Z M30.8525467,16.2455417 L30.1382003,16.9437917 L30.1382003,20.8314167 L27.0285569,20.8314167 L27.0285569,4.07079167 L30.1382003,4.07079167 L30.1382003,13.45225 L33.6397963,9.681 L37.4176061,9.681 L32.9947199,14.266875 L38.0857725,20.8314167 L34.330764,20.8314167 L30.8525467,16.2455417 Z M19.0411545,18.4805833 C20.5154499,18.4805833 21.8053141,17.1768333 21.8053141,15.2912083 C21.8053141,13.3355833 20.6075212,12.0554583 19.0642445,12.0554583 C17.1290153,12.0554583 16.207725,13.6616667 16.207725,15.267875 C16.207725,16.8974167 17.1062139,18.4805833 19.0411545,18.4805833 Z M24.7539049,20.8314167 L21.7594228,20.8314167 L21.7594228,19.434625 L21.6673514,19.434625 C20.9530051,20.38925 19.8703735,21.203875 18.0736842,21.203875 C15.931511,21.203875 13.0519015,19.4579583 13.0519015,15.2448333 C13.0519015,11.6596667 15.4936672,9.37854167 18.3040068,9.37854167 C20.0317148,9.37854167 21.0681664,10.2398333 21.6673514,11.1244583 L21.7594228,11.1244583 L21.7594228,9.681 L24.7539049,9.681 L24.7539049,20.8314167 L24.7539049,20.8314167 Z" id="Fill-3" fill="#FFFFFE"></path>
        </g>
    </g>
</svg>